<?xml version="1.0" encoding="UTF-8" standalone="no"?>
<svg xmlns="http://www.w3.org/2000/svg" width="24" height="24" viewBox="0 0 24 24" shape-rendering="crispEdges">
  <rect x="5" y="1" width="1" height="1" fill="#000000" fill-opacity="0.3294"/><rect x="6" y="1" width="12" height="1" fill="#000000" fill-opacity="0.5333"/><rect x="18" y="1" width="1" height="1" fill="#000000" fill-opacity="0.3294"/><rect x="5" y="2" width="1" height="1" fill="#000000" fill-opacity="0.7176"/><rect x="6" y="2" width="1" height="1" fill="#000000" fill-opacity="0.5412"/><rect x="7" y="2" width="10" height="1" fill="#000000" fill-opacity="0.4000"/><rect x="17" y="2" width="1" height="1" fill="#000000" fill-opacity="0.5412"/><rect x="18" y="2" width="1" height="1" fill="#000000" fill-opacity="0.7176"/><rect x="5" y="3" width="1" height="1" fill="#000000" fill-opacity="0.7176"/><rect x="6" y="3" width="1" height="1" fill="#000000" fill-opacity="0.2392"/><rect x="7" y="3" width="1" height="1" fill="#000000" fill-opacity="0.1451"/><rect x="8" y="3" width="1" height="1" fill="#000000" fill-opacity="0.6588"/><rect x="9" y="3" width="1" height="1" fill="#000000" fill-opacity="0.6667"/><rect x="10" y="3" width="1" height="1" fill="#000000" fill-opacity="0.2941"/><rect x="12" y="3" width="2" height="1" fill="#000000" fill-opacity="0.6667"/><rect x="14" y="3" width="1" height="1" fill="#000000" fill-opacity="0.5843"/><rect x="17" y="3" width="1" height="1" fill="#000000" fill-opacity="0.2392"/><rect x="18" y="3" width="1" height="1" fill="#000000" fill-opacity="0.7176"/><rect x="5" y="4" width="1" height="1" fill="#000000" fill-opacity="0.7176"/><rect x="6" y="4" width="1" height="1" fill="#000000" fill-opacity="0.2392"/><rect x="7" y="4" width="1" height="1" fill="#000000" fill-opacity="0.3216"/><rect x="8" y="4" width="1" height="1" fill="#000000" fill-opacity="0.7608"/><rect x="9" y="4" width="1" height="1" fill="#000000" fill-opacity="0.6000"/><rect x="10" y="4" width="1" height="1" fill="#000000" fill-opacity="0.5569"/><rect x="12" y="4" width="2" height="1" fill="#000000" fill-opacity="0.3333"/><rect x="14" y="4" width="1" height="1" fill="#000000" fill-opacity="0.2941"/><rect x="17" y="4" width="1" height="1" fill="#000000" fill-opacity="0.2392"/><rect x="18" y="4" width="1" height="1" fill="#000000" fill-opacity="0.7176"/><rect x="5" y="5" width="1" height="1" fill="#000000" fill-opacity="0.7176"/><rect x="6" y="5" width="1" height="1" fill="#000000" fill-opacity="0.2392"/><rect x="7" y="5" width="1" height="1" fill="#000000" fill-opacity="0.3098"/><rect x="8" y="5" width="1" height="1" fill="#000000" fill-opacity="0.9059"/><rect x="9" y="5" width="1" height="1" fill="#000000" fill-opacity="0.8392"/><rect x="10" y="5" width="1" height="1" fill="#000000" fill-opacity="0.5451"/><rect x="12" y="5" width="4" height="1" fill="#000000" fill-opacity="0.7333"/><rect x="16" y="5" width="1" height="1" fill="#000000" fill-opacity="0.2353"/><rect x="17" y="5" width="1" height="1" fill="#000000" fill-opacity="0.2392"/><rect x="18" y="5" width="1" height="1" fill="#000000" fill-opacity="0.7176"/><rect x="5" y="6" width="1" height="1" fill="#000000" fill-opacity="0.7176"/><rect x="6" y="6" width="1" height="1" fill="#000000" fill-opacity="0.2392"/><rect x="7" y="6" width="1" height="1" fill="#000000" fill-opacity="0.0275"/><rect x="8" y="6" width="1" height="1" fill="#000000" fill-opacity="0.2549"/><rect x="9" y="6" width="1" height="1" fill="#000000" fill-opacity="0.2667"/><rect x="10" y="6" width="1" height="1" fill="#000000" fill-opacity="0.0784"/><rect x="12" y="6" width="4" height="1" fill="#000000" fill-opacity="0.2667"/><rect x="16" y="6" width="1" height="1" fill="#000000" fill-opacity="0.0863"/><rect x="17" y="6" width="1" height="1" fill="#000000" fill-opacity="0.2392"/><rect x="18" y="6" width="1" height="1" fill="#000000" fill-opacity="0.7176"/><rect x="5" y="7" width="1" height="1" fill="#000000" fill-opacity="0.7176"/><rect x="6" y="7" width="1" height="1" fill="#000000" fill-opacity="0.8471"/><rect x="7" y="7" width="10" height="1" fill="#000000" fill-opacity="0.8000"/><rect x="17" y="7" width="1" height="1" fill="#000000" fill-opacity="0.8471"/><rect x="18" y="7" width="1" height="1" fill="#000000" fill-opacity="0.7176"/><rect x="5" y="8" width="1" height="1" fill="#000000" fill-opacity="0.7176"/><rect x="6" y="8" width="1" height="1" fill="#000000" fill-opacity="0.3412"/><rect x="7" y="8" width="10" height="1" fill="#000000" fill-opacity="0.1333"/><rect x="17" y="8" width="1" height="1" fill="#000000" fill-opacity="0.3412"/><rect x="18" y="8" width="1" height="1" fill="#000000" fill-opacity="0.7176"/><rect x="5" y="9" width="1" height="1" fill="#000000" fill-opacity="0.7176"/><rect x="6" y="9" width="1" height="1" fill="#000000" fill-opacity="0.2392"/><rect x="7" y="9" width="1" height="1" fill="#000000" fill-opacity="0.2784"/><rect x="8" y="9" width="1" height="1" fill="#000000" fill-opacity="0.8667"/><rect x="9" y="9" width="1" height="1" fill="#000000" fill-opacity="0.4510"/><rect x="10" y="9" width="1" height="1" fill="#000000" fill-opacity="0.4824"/><rect x="11" y="9" width="2" height="1" fill="#000000" fill-opacity="0.8314"/><rect x="13" y="9" width="1" height="1" fill="#000000" fill-opacity="0.0667"/><rect x="14" y="9" width="1" height="1" fill="#000000" fill-opacity="0.7608"/><rect x="15" y="9" width="1" height="1" fill="#000000" fill-opacity="0.5569"/><rect x="16" y="9" width="1" height="1" fill="#000000" fill-opacity="0.2784"/><rect x="17" y="9" width="1" height="1" fill="#000000" fill-opacity="0.2392"/><rect x="18" y="9" width="1" height="1" fill="#000000" fill-opacity="0.7176"/><rect x="1" y="10" width="1" height="1" fill="#000000" fill-opacity="0.0431"/><rect x="2" y="10" width="1" height="1" fill="#000000" fill-opacity="0.6627"/><rect x="3" y="10" width="1" height="1" fill="#000000" fill-opacity="0.9176"/><rect x="4" y="10" width="1" height="1" fill="#000000" fill-opacity="0.2980"/><rect x="5" y="10" width="1" height="1" fill="#000000" fill-opacity="0.7176"/><rect x="6" y="10" width="1" height="1" fill="#000000" fill-opacity="0.2392"/><rect x="7" y="10" width="1" height="1" fill="#000000" fill-opacity="0.3216"/><rect x="8" y="10" width="1" height="1" fill="#000000"/><rect x="9" y="10" width="1" height="1" fill="#000000" fill-opacity="0.5176"/><rect x="10" y="10" width="1" height="1" fill="#000000" fill-opacity="0.5569"/><rect x="11" y="10" width="2" height="1" fill="#000000" fill-opacity="0.9608"/><rect x="13" y="10" width="1" height="1" fill="#000000" fill-opacity="0.0784"/><rect x="14" y="10" width="1" height="1" fill="#000000" fill-opacity="0.8784"/><rect x="15" y="10" width="1" height="1" fill="#000000" fill-opacity="0.6392"/><rect x="16" y="10" width="1" height="1" fill="#000000" fill-opacity="0.3216"/><rect x="17" y="10" width="1" height="1" fill="#000000" fill-opacity="0.2392"/><rect x="18" y="10" width="1" height="1" fill="#000000" fill-opacity="0.7176"/><rect x="19" y="10" width="1" height="1" fill="#000000" fill-opacity="0.2980"/><rect x="20" y="10" width="1" height="1" fill="#000000" fill-opacity="0.9176"/><rect x="21" y="10" width="1" height="1" fill="#000000" fill-opacity="0.6588"/><rect x="22" y="10" width="1" height="1" fill="#000000" fill-opacity="0.0392"/><rect x="1" y="11" width="1" height="1" fill="#000000" fill-opacity="0.4431"/><rect x="2" y="11" width="1" height="1" fill="#000000" fill-opacity="0.6196"/><rect x="3" y="11" width="1" height="1" fill="#000000" fill-opacity="0.0667"/><rect x="4" y="11" width="1" height="1" fill="#000000" fill-opacity="0.0196"/><rect x="5" y="11" width="1" height="1" fill="#000000" fill-opacity="0.7176"/><rect x="6" y="11" width="1" height="1" fill="#000000" fill-opacity="0.2392"/><rect x="7" y="11" width="1" height="1" fill="#000000" fill-opacity="0.3216"/><rect x="8" y="11" width="1" height="1" fill="#000000"/><rect x="9" y="11" width="1" height="1" fill="#000000" fill-opacity="0.5176"/><rect x="10" y="11" width="1" height="1" fill="#000000" fill-opacity="0.5569"/><rect x="11" y="11" width="2" height="1" fill="#000000" fill-opacity="0.9608"/><rect x="13" y="11" width="1" height="1" fill="#000000" fill-opacity="0.0784"/><rect x="14" y="11" width="1" height="1" fill="#000000" fill-opacity="0.8784"/><rect x="15" y="11" width="1" height="1" fill="#000000" fill-opacity="0.6392"/><rect x="16" y="11" width="1" height="1" fill="#000000" fill-opacity="0.3216"/><rect x="17" y="11" width="1" height="1" fill="#000000" fill-opacity="0.2392"/><rect x="18" y="11" width="1" height="1" fill="#000000" fill-opacity="0.7176"/><rect x="19" y="11" width="1" height="1" fill="#000000" fill-opacity="0.0196"/><rect x="20" y="11" width="1" height="1" fill="#000000" fill-opacity="0.0706"/><rect x="21" y="11" width="1" height="1" fill="#000000" fill-opacity="0.6235"/><rect x="22" y="11" width="1" height="1" fill="#000000" fill-opacity="0.4392"/><rect x="1" y="12" width="1" height="1" fill="#000000" fill-opacity="0.5569"/><rect x="2" y="12" width="1" height="1" fill="#000000" fill-opacity="0.4000"/><rect x="5" y="12" width="1" height="1" fill="#000000" fill-opacity="0.7176"/><rect x="6" y="12" width="1" height="1" fill="#000000" fill-opacity="0.2902"/><rect x="7" y="12" width="10" height="1" fill="#000000" fill-opacity="0.0667"/><rect x="17" y="12" width="1" height="1" fill="#000000" fill-opacity="0.2902"/><rect x="18" y="12" width="1" height="1" fill="#000000" fill-opacity="0.7176"/><rect x="21" y="12" width="1" height="1" fill="#000000" fill-opacity="0.4000"/><rect x="22" y="12" width="1" height="1" fill="#000000" fill-opacity="0.5569"/><rect x="1" y="13" width="1" height="1" fill="#000000" fill-opacity="0.5569"/><rect x="2" y="13" width="1" height="1" fill="#000000" fill-opacity="0.4000"/><rect x="5" y="13" width="1" height="1" fill="#000000" fill-opacity="0.7176"/><rect x="6" y="13" width="1" height="1" fill="#000000" fill-opacity="0.9490"/><rect x="7" y="13" width="10" height="1" fill="#000000" fill-opacity="0.9333"/><rect x="17" y="13" width="1" height="1" fill="#000000" fill-opacity="0.9490"/><rect x="18" y="13" width="1" height="1" fill="#000000" fill-opacity="0.7176"/><rect x="21" y="13" width="1" height="1" fill="#000000" fill-opacity="0.4000"/><rect x="22" y="13" width="1" height="1" fill="#000000" fill-opacity="0.5569"/><rect x="1" y="14" width="1" height="1" fill="#000000" fill-opacity="0.5569"/><rect x="2" y="14" width="1" height="1" fill="#000000" fill-opacity="0.4000"/><rect x="4" y="14" width="1" height="1" fill="#000000" fill-opacity="0.4588"/><rect x="5" y="14" width="1" height="1" fill="#000000" fill-opacity="0.8863"/><rect x="6" y="14" width="1" height="1" fill="#000000" fill-opacity="0.2392"/><rect x="17" y="14" width="1" height="1" fill="#000000" fill-opacity="0.2392"/><rect x="18" y="14" width="1" height="1" fill="#000000" fill-opacity="0.8863"/><rect x="19" y="14" width="1" height="1" fill="#000000" fill-opacity="0.4902"/><rect x="20" y="14" width="1" height="1" fill="#000000" fill-opacity="0.0078"/><rect x="21" y="14" width="1" height="1" fill="#000000" fill-opacity="0.4000"/><rect x="22" y="14" width="1" height="1" fill="#000000" fill-opacity="0.5569"/><rect x="1" y="15" width="1" height="1" fill="#000000" fill-opacity="0.5569"/><rect x="2" y="15" width="1" height="1" fill="#000000" fill-opacity="0.4000"/><rect x="3" y="15" width="1" height="1" fill="#000000" fill-opacity="0.0824"/><rect x="4" y="15" width="1" height="1" fill="#000000" fill-opacity="0.9922"/><rect x="5" y="15" width="1" height="1" fill="#000000"/><rect x="6" y="15" width="1" height="1" fill="#000000" fill-opacity="0.7451"/><rect x="7" y="15" width="10" height="1" fill="#000000" fill-opacity="0.6667"/><rect x="17" y="15" width="1" height="1" fill="#000000" fill-opacity="0.7451"/><rect x="18" y="15" width="1" height="1" fill="#000000"/><rect x="19" y="15" width="1" height="1" fill="#000000" fill-opacity="0.9922"/><rect x="20" y="15" width="1" height="1" fill="#000000" fill-opacity="0.0941"/><rect x="21" y="15" width="1" height="1" fill="#000000" fill-opacity="0.4000"/><rect x="22" y="15" width="1" height="1" fill="#000000" fill-opacity="0.5569"/><rect x="1" y="16" width="1" height="1" fill="#000000" fill-opacity="0.5569"/><rect x="2" y="16" width="1" height="1" fill="#000000" fill-opacity="0.4000"/><rect x="4" y="16" width="1" height="1" fill="#000000" fill-opacity="0.2157"/><rect x="5" y="16" width="14" height="1" fill="#000000" fill-opacity="0.3333"/><rect x="19" y="16" width="1" height="1" fill="#000000" fill-opacity="0.2157"/><rect x="21" y="16" width="1" height="1" fill="#000000" fill-opacity="0.4000"/><rect x="22" y="16" width="1" height="1" fill="#000000" fill-opacity="0.5569"/><rect x="1" y="17" width="1" height="1" fill="#000000" fill-opacity="0.5569"/><rect x="2" y="17" width="1" height="1" fill="#000000" fill-opacity="0.4000"/><rect x="18" y="17" width="1" height="1" fill="#000000" fill-opacity="0.0706"/><rect x="19" y="17" width="1" height="1" fill="#000000" fill-opacity="0.1529"/><rect x="21" y="17" width="1" height="1" fill="#000000" fill-opacity="0.4000"/><rect x="22" y="17" width="1" height="1" fill="#000000" fill-opacity="0.5569"/><rect x="1" y="18" width="1" height="1" fill="#000000" fill-opacity="0.5569"/><rect x="2" y="18" width="1" height="1" fill="#000000" fill-opacity="0.4000"/><rect x="17" y="18" width="1" height="1" fill="#000000" fill-opacity="0.0706"/><rect x="18" y="18" width="1" height="1" fill="#000000" fill-opacity="0.8863"/><rect x="19" y="18" width="1" height="1" fill="#000000" fill-opacity="0.8745"/><rect x="20" y="18" width="1" height="1" fill="#000000" fill-opacity="0.3843"/><rect x="21" y="18" width="1" height="1" fill="#000000" fill-opacity="0.4000"/><rect x="22" y="18" width="1" height="1" fill="#000000" fill-opacity="0.5569"/><rect x="1" y="19" width="1" height="1" fill="#000000" fill-opacity="0.5569"/><rect x="2" y="19" width="1" height="1" fill="#000000" fill-opacity="0.4000"/><rect x="17" y="19" width="1" height="1" fill="#000000" fill-opacity="0.1569"/><rect x="18" y="19" width="1" height="1" fill="#000000" fill-opacity="0.8745"/><rect x="19" y="19" width="1" height="1" fill="#000000" fill-opacity="0.6235"/><rect x="20" y="19" width="1" height="1" fill="#000000" fill-opacity="0.5569"/><rect x="21" y="19" width="1" height="1" fill="#000000" fill-opacity="0.4000"/><rect x="22" y="19" width="1" height="1" fill="#000000" fill-opacity="0.5569"/><rect x="1" y="20" width="1" height="1" fill="#000000" fill-opacity="0.5569"/><rect x="2" y="20" width="1" height="1" fill="#000000" fill-opacity="0.4000"/><rect x="18" y="20" width="1" height="1" fill="#000000" fill-opacity="0.3843"/><rect x="19" y="20" width="1" height="1" fill="#000000" fill-opacity="0.5529"/><rect x="20" y="20" width="1" height="1" fill="#000000" fill-opacity="0.0784"/><rect x="21" y="20" width="1" height="1" fill="#000000" fill-opacity="0.4000"/><rect x="22" y="20" width="1" height="1" fill="#000000" fill-opacity="0.5569"/><rect x="1" y="21" width="1" height="1" fill="#000000" fill-opacity="0.5255"/><rect x="2" y="21" width="1" height="1" fill="#000000" fill-opacity="0.6392"/><rect x="3" y="21" width="18" height="1" fill="#000000" fill-opacity="0.4000"/><rect x="21" y="21" width="1" height="1" fill="#000000" fill-opacity="0.6392"/><rect x="22" y="21" width="1" height="1" fill="#000000" fill-opacity="0.5412"/><rect x="1" y="22" width="1" height="1" fill="#000000" fill-opacity="0.1176"/><rect x="2" y="22" width="1" height="1" fill="#000000" fill-opacity="0.5255"/><rect x="3" y="22" width="18" height="1" fill="#000000" fill-opacity="0.5333"/><rect x="21" y="22" width="1" height="1" fill="#000000" fill-opacity="0.5255"/><rect x="22" y="22" width="1" height="1" fill="#000000" fill-opacity="0.1255"/>
</svg>